<svg width="307" height="41" viewBox="0 0 307 41" fill="none" xmlns="http://www.w3.org/2000/svg">
<path d="M13.3041 31.2168H17.3853V7.77569H11.4491C5.47921 7.77569 2.34248 10.845 2.34248 15.3645C2.34248 18.9735 4.06262 21.0983 7.13189 23.2907L1.80283 31.2168H6.22123L12.1574 22.3463L10.1 20.9634C7.60408 19.277 6.38987 17.9616 6.38987 15.1284C6.38987 12.6326 8.14373 10.9461 11.4828 10.9461H13.3041V31.2168ZM66.8983 30.07V26.7984C65.6503 27.6416 63.5592 28.3836 61.6029 28.3836C58.6686 28.3836 57.5556 27.0008 57.3869 24.1676H67.0669V22.0427C67.0669 16.1403 64.4698 13.9142 60.4562 13.9142C55.5656 13.9142 53.2383 17.6581 53.2383 22.7847C53.2383 28.6872 56.139 31.5541 61.2657 31.5541C63.829 31.5541 65.7178 30.8795 66.8983 30.07ZM91.992 31.5541C93.8471 31.5541 95.1625 31.2168 96.1406 30.5085V27.2369C95.1288 27.9452 93.9146 28.3836 92.2281 28.3836C89.3613 28.3836 88.1808 26.1576 88.1808 22.6498C88.1808 18.9735 89.6311 17.0847 92.2619 17.0847C93.8134 17.0847 95.3311 17.6243 96.1406 18.1303V14.7237C95.2974 14.2515 93.8134 13.9142 91.8234 13.9142C86.6967 13.9142 84.0322 17.5906 84.0322 22.751C84.0322 28.4174 86.6293 31.5541 91.992 31.5541ZM30.1345 14.2515V20.9634H24.7717V14.2515H20.7581V31.2168H24.7717V24.1339H30.1345V31.2168H34.1482V14.2515H30.1345ZM52.2602 28.0463H50.4726V14.2515H38.7689V15.7018C38.7689 19.8504 38.4991 25.2132 37.0825 28.0463H35.8346V35.0955H39.5447V31.2168H48.5501V35.0955H52.2602V28.0463ZM79.715 31.2168H84.2683L77.8262 22.0765L83.4925 14.2515H79.4452L73.7788 22.0765V14.2515H69.7652V31.2168H73.7788V22.8859L79.715 31.2168ZM60.3887 17.0847C62.3787 17.0847 62.9858 18.7374 62.9858 20.8622V21.1995H57.3869C57.4881 18.5013 58.4662 17.0847 60.3887 17.0847ZM46.459 28.0463H40.7926C41.9057 25.483 42.2092 20.8622 42.2092 17.9279V17.422H46.459V28.0463Z" fill="white"/>
<g clip-path="url(#clip0)">
<mask id="mask0" mask-type="alpha" maskUnits="userSpaceOnUse" x="104" y="4" width="32" height="32">
<circle cx="120.339" cy="20.066" r="15.4135" transform="rotate(-47.014 120.339 20.066)" fill="#C4C4C4"/>
<circle cx="120.339" cy="20.066" r="15.4135" transform="rotate(-47.014 120.339 20.066)" fill="url(#paint0_linear)"/>
</mask>
<g mask="url(#mask0)">
<g filter="url(#filter0_f)">
<circle cx="120.339" cy="20.0664" r="15.4135" transform="rotate(-45 120.339 20.0664)" fill="url(#paint1_radial)"/>
</g>
</g>
</g>
<path d="M144.213 7.77569V31.2168H148.294V21.0309H155.916V31.2168H159.997V7.77569H155.916V17.8604H148.294V7.77569H144.213ZM176.064 19.648C176.064 15.5332 173.973 13.9817 169.723 13.9817C167.059 13.9817 164.967 14.8249 163.753 15.5332V18.8723C164.833 18.0628 167.194 17.1859 169.251 17.1859C171.173 17.1859 172.05 17.8604 172.05 19.6818V20.6261H171.41C165.271 20.6261 162.539 22.6498 162.539 26.0901C162.539 29.5304 164.63 31.4529 167.733 31.4529C170.094 31.4529 171.106 30.6771 171.882 29.8677H172.05C172.084 30.3061 172.219 30.8795 172.354 31.2168H176.266C176.132 29.8339 176.064 28.4511 176.064 27.0682V19.648ZM172.05 27.1694C171.544 27.9114 170.6 28.5185 169.183 28.5185C167.497 28.5185 166.654 27.5067 166.654 25.9889C166.654 23.999 168.037 23.2907 171.477 23.2907H172.05V27.1694ZM186.576 31.5541C188.431 31.5541 189.747 31.2168 190.725 30.5085V27.2369C189.713 27.9452 188.499 28.3836 186.813 28.3836C183.946 28.3836 182.765 26.1576 182.765 22.6498C182.765 18.9735 184.215 17.0847 186.846 17.0847C188.398 17.0847 189.916 17.6243 190.725 18.1303V14.7237C189.882 14.2515 188.398 13.9142 186.408 13.9142C181.281 13.9142 178.617 17.5906 178.617 22.751C178.617 28.4174 181.214 31.5541 186.576 31.5541ZM205.702 17.422V14.2515H192.245V17.422H196.967V31.2168H200.98V17.422H205.702ZM211.789 14.2515H208.079V36.1074H212.092V29.2268C213.104 30.7446 214.588 31.5541 216.308 31.5541C220.221 31.5541 222.919 28.4174 222.919 22.7173C222.919 17.051 220.288 13.9142 216.511 13.9142C214.622 13.9142 213.07 14.7912 211.991 16.4438L211.789 14.2515ZM215.297 28.3836C213.172 28.3836 212.092 26.6635 212.092 22.751C212.092 18.8048 213.239 17.0847 215.499 17.0847C217.691 17.0847 218.771 18.8048 218.771 22.7173C218.771 26.6635 217.624 28.3836 215.297 28.3836ZM232.415 13.9142C227.996 13.9142 224.927 17.051 224.927 22.751C224.927 28.4174 227.996 31.5541 232.415 31.5541C236.833 31.5541 239.902 28.4174 239.902 22.7173C239.902 17.051 236.833 13.9142 232.415 13.9142ZM232.415 28.3836C230.189 28.3836 229.076 26.6635 229.076 22.751C229.076 18.8048 230.189 17.0847 232.415 17.0847C234.641 17.0847 235.754 18.8048 235.754 22.7173C235.754 26.6635 234.641 28.3836 232.415 28.3836ZM255.583 30.07V26.7984C254.335 27.6416 252.244 28.3836 250.287 28.3836C247.353 28.3836 246.24 27.0008 246.071 24.1676H255.751V22.0427C255.751 16.1403 253.154 13.9142 249.141 13.9142C244.25 13.9142 241.923 17.6581 241.923 22.7847C241.923 28.6872 244.823 31.5541 249.95 31.5541C252.513 31.5541 254.402 30.8795 255.583 30.07ZM249.073 17.0847C251.063 17.0847 251.67 18.7374 251.67 20.8622V21.1995H246.071C246.173 18.5013 247.151 17.0847 249.073 17.0847ZM267.817 14.2515V20.9634H262.454V14.2515H258.44V31.2168H262.454V24.1339H267.817V31.2168H271.831V14.2515H267.817ZM275.206 14.2515V31.2168H278.68L284.886 20.7273V31.2168H288.798V14.2515H285.324L279.118 24.741V14.2515H275.206ZM305.154 30.07V26.7984C303.906 27.6416 301.815 28.3836 299.859 28.3836C296.924 28.3836 295.811 27.0008 295.643 24.1676H305.323V22.0427C305.323 16.1403 302.726 13.9142 298.712 13.9142C293.821 13.9142 291.494 17.6581 291.494 22.7847C291.494 28.6872 294.395 31.5541 299.521 31.5541C302.085 31.5541 303.974 30.8795 305.154 30.07ZM298.644 17.0847C300.634 17.0847 301.242 18.7374 301.242 20.8622V21.1995H295.643C295.744 18.5013 296.722 17.0847 298.644 17.0847Z" fill="white"/>
<defs>
<filter id="filter0_f" x="102.941" y="2.66832" width="34.7951" height="34.7951" filterUnits="userSpaceOnUse" color-interpolation-filters="sRGB">
<feFlood flood-opacity="0" result="BackgroundImageFix"/>
<feBlend mode="normal" in="SourceGraphic" in2="BackgroundImageFix" result="shape"/>
<feGaussianBlur stdDeviation="0.992014" result="effect1_foregroundBlur"/>
</filter>
<linearGradient id="paint0_linear" x1="120.339" y1="4.65247" x2="120.339" y2="35.4795" gradientUnits="userSpaceOnUse">
<stop stop-color="#4297E0"/>
<stop offset="0.0261256" stop-color="#4297E0"/>
<stop offset="0.100956" stop-color="#2ECCB7"/>
<stop offset="0.159059" stop-color="#2ECCB7"/>
<stop offset="0.228607" stop-color="#C2EBEF"/>
<stop offset="0.274385" stop-color="#C2EBEF"/>
<stop offset="0.329847" stop-color="#E8C9F0"/>
<stop offset="0.374745" stop-color="#FFA6BA"/>
<stop offset="0.413481" stop-color="#F56C4E"/>
<stop offset="0.444293" stop-color="#F3424A"/>
<stop offset="0.490071" stop-color="#C16ADE"/>
<stop offset="0.539371" stop-color="#3E86F1"/>
<stop offset="0.580748" stop-color="#47A4FB"/>
<stop offset="0.615962" stop-color="#94D774"/>
<stop offset="0.663501" stop-color="#E4D11F"/>
<stop offset="0.69308" stop-color="#FFCF23"/>
<stop offset="0.733929" stop-color="#FFB252"/>
<stop offset="0.779707" stop-color="#FF9999"/>
<stop offset="0.824605" stop-color="#F9A8A8"/>
<stop offset="0.884469" stop-color="#C790BB"/>
<stop offset="0.932888" stop-color="#8D92A5"/>
<stop offset="1" stop-color="#8D92A5"/>
</linearGradient>
<radialGradient id="paint1_radial" cx="0" cy="0" r="1" gradientUnits="userSpaceOnUse" gradientTransform="translate(120.426 5.01643) rotate(94.992) scale(62.7437 70.083)">
<stop stop-color="#8CE7F0"/>
<stop offset="0.0989583" stop-color="#99F6FF"/>
<stop offset="0.192708" stop-color="#E8C9F0"/>
<stop offset="0.266058" stop-color="#FFA6BA"/>
<stop offset="0.331533" stop-color="#FF896F"/>
<stop offset="0.363066" stop-color="#FF6F75"/>
<stop offset="0.450856" stop-color="#DB72FF"/>
<stop offset="0.497263" stop-color="#9A8AFF"/>
<stop offset="0.537702" stop-color="#62A1FF"/>
<stop offset="0.579553" stop-color="#47A4FB"/>
<stop offset="0.63277" stop-color="#5FDC91"/>
<stop offset="0.705528" stop-color="#D8D12F"/>
<stop offset="0.758004" stop-color="#FFCF23"/>
<stop offset="0.797127" stop-color="#FEBF46"/>
<stop offset="0.838903" stop-color="#FF9999"/>
<stop offset="0.884657" stop-color="#F49F9F"/>
<stop offset="0.932401" stop-color="#C790BB"/>
<stop offset="0.969534" stop-color="#8D92A5"/>
<stop offset="1" stop-color="#8D92A5"/>
</radialGradient>
<clipPath id="clip0">
<rect width="30.7524" height="30.7524" fill="white" transform="translate(104.923 4.65039)"/>
</clipPath>
</defs>
</svg>
