<svg width="307" height="41" xmlns="http://www.w3.org/2000/svg" fill="none">
 <defs>
  <filter color-interpolation-filters="sRGB" filterUnits="userSpaceOnUse" height="34.7951" width="34.7951" y="2.66832" x="102.941" id="filter0_f">
   <feGaussianBlur result="effect1_foregroundBlur" stdDeviation="0.99201"/>
  </filter>
  <clipPath id="clip0">
   <rect id="svg_1" x="104.923" y="4.65039" fill="white" height="30.7524" width="30.7524"/>
  </clipPath>
  <linearGradient y2="1" x2="0.5" y1="0" x1="0.5" id="paint0_linear">
   <stop stop-color="#4297E0"/>
   <stop stop-color="#4297E0" offset="0.02613"/>
   <stop stop-color="#2ECCB7" offset="0.10096"/>
   <stop stop-color="#2ECCB7" offset="0.15906"/>
   <stop stop-color="#C2EBEF" offset="0.22861"/>
   <stop stop-color="#C2EBEF" offset="0.27438"/>
   <stop stop-color="#E8C9F0" offset="0.32985"/>
   <stop stop-color="#FFA6BA" offset="0.37474"/>
   <stop stop-color="#F56C4E" offset="0.41348"/>
   <stop stop-color="#F3424A" offset="0.44429"/>
   <stop stop-color="#C16ADE" offset="0.49007"/>
   <stop stop-color="#3E86F1" offset="0.53937"/>
   <stop stop-color="#47A4FB" offset="0.58075"/>
   <stop stop-color="#94D774" offset="0.61596"/>
   <stop stop-color="#E4D11F" offset="0.6635"/>
   <stop stop-color="#FFCF23" offset="0.69308"/>
   <stop stop-color="#FFB252" offset="0.73393"/>
   <stop stop-color="#FF9999" offset="0.77971"/>
   <stop stop-color="#F9A8A8" offset="0.82461"/>
   <stop stop-color="#C790BB" offset="0.88447"/>
   <stop stop-color="#8D92A5" offset="0.93289"/>
   <stop stop-color="#8D92A5" offset="1"/>
  </linearGradient>
  <radialGradient gradientTransform="translate(120.426 5.01643) rotate(94.992) scale(62.7437 70.083)" gradientUnits="userSpaceOnUse" r="1" cy="0" cx="0" id="paint1_radial">
   <stop stop-color="#8CE7F0"/>
   <stop stop-color="#99F6FF" offset="0.09896"/>
   <stop stop-color="#E8C9F0" offset="0.19271"/>
   <stop stop-color="#FFA6BA" offset="0.26606"/>
   <stop stop-color="#FF896F" offset="0.33153"/>
   <stop stop-color="#FF6F75" offset="0.36307"/>
   <stop stop-color="#DB72FF" offset="0.45086"/>
   <stop stop-color="#9A8AFF" offset="0.49726"/>
   <stop stop-color="#62A1FF" offset="0.5377"/>
   <stop stop-color="#47A4FB" offset="0.57955"/>
   <stop stop-color="#5FDC91" offset="0.63277"/>
   <stop stop-color="#D8D12F" offset="0.70553"/>
   <stop stop-color="#FFCF23" offset="0.758"/>
   <stop stop-color="#FEBF46" offset="0.79713"/>
   <stop stop-color="#FF9999" offset="0.8389"/>
   <stop stop-color="#F49F9F" offset="0.88466"/>
   <stop stop-color="#C790BB" offset="0.9324"/>
   <stop stop-color="#8D92A5" offset="0.96953"/>
   <stop stop-color="#8D92A5" offset="1"/>
  </radialGradient>
 </defs>
 <g>
  <title>Layer 1</title>
  <path id="svg_2" fill="white" d="m13.3041,31.2168l4.0812,0l0,-23.44111l-5.9362,0c-5.96989,0 -9.10662,3.06931 -9.10662,7.58881c0,3.609 1.72014,5.7338 4.78941,7.9262l-5.32906,7.9261l4.4184,0l5.93617,-8.8705l-2.0574,-1.3829c-2.49592,-1.6864 -3.71013,-3.0018 -3.71013,-5.835c0,-2.4958 1.75386,-4.1823 5.09293,-4.1823l1.8213,0l0,20.2707zm53.5942,-1.1468l0,-3.2716c-1.248,0.8432 -3.3391,1.5852 -5.2954,1.5852c-2.9343,0 -4.0473,-1.3828 -4.216,-4.216l9.68,0l0,-2.1249c0,-5.9024 -2.5971,-8.1285 -6.6107,-8.1285c-4.8906,0 -7.2179,3.7439 -7.2179,8.8705c0,5.9025 2.9007,8.7694 8.0274,8.7694c2.5633,0 4.4521,-0.6746 5.6326,-1.4841zm25.0937,1.4841c1.8551,0 3.1705,-0.3373 4.1486,-1.0456l0,-3.2716c-1.0118,0.7083 -2.226,1.1467 -3.9125,1.1467c-2.8668,0 -4.0473,-2.226 -4.0473,-5.7338c0,-3.6763 1.4503,-5.5651 4.0811,-5.5651c1.5515,0 3.0692,0.5396 3.8787,1.0456l0,-3.4066c-0.8432,-0.4722 -2.3272,-0.8095 -4.3172,-0.8095c-5.1267,0 -7.7912,3.6764 -7.7912,8.8368c0,5.6664 2.5971,8.8031 7.9598,8.8031zm-61.8575,-17.3026l0,6.7119l-5.3628,0l0,-6.7119l-4.0136,0l0,16.9653l4.0136,0l0,-7.0829l5.3628,0l0,7.0829l4.0137,0l0,-16.9653l-4.0137,0zm22.1257,13.7948l-1.7876,0l0,-13.7948l-11.7037,0l0,1.4503c0,4.1486 -0.2698,9.5114 -1.6864,12.3445l-1.2479,0l0,7.0492l3.7101,0l0,-3.8787l9.0054,0l0,3.8787l3.7101,0l0,-7.0492zm27.4548,3.1705l4.5533,0l-6.4421,-9.1403l5.6663,-7.825l-4.0473,0l-5.6664,7.825l0,-7.825l-4.0136,0l0,16.9653l4.0136,0l0,-8.3309l5.9362,8.3309zm-19.3263,-14.1321c1.99,0 2.5971,1.6527 2.5971,3.7775l0,0.3373l-5.5989,0c0.1012,-2.6982 1.0793,-4.1148 3.0018,-4.1148zm-13.9297,10.9616l-5.6664,0c1.1131,-2.5633 1.4166,-7.1841 1.4166,-10.1184l0,-0.5059l4.2498,0l0,10.6243z"/>
  <g id="svg_3" clip-path="url(#clip0)">
   <mask height="32" width="32" y="4" x="104" maskUnits="userSpaceOnUse" mask-type="alpha" id="mask0">
    <circle id="svg_4" fill="#C4C4C4" transform="rotate(-47.014 120.339 20.066)" r="15.4135" cy="20.066" cx="120.339"/>
    <circle id="svg_5" fill="url(#paint0_linear)" transform="rotate(-47.014 120.339 20.066)" r="15.4135" cy="20.066" cx="120.339"/>
   </mask>
   <g id="svg_6" mask="url(#mask0)">
    <g id="svg_7" filter="url(#filter0_f)">
     <circle id="svg_8" fill="url(#paint1_radial)" transform="rotate(-45 120.339 20.0664)" r="15.4135" cy="20.0664" cx="120.339"/>
    </g>
   </g>
  </g>
  <path id="svg_9" fill="white" d="m144.213,7.77569l0,23.44111l4.081,0l0,-10.1859l7.622,0l0,10.1859l4.081,0l0,-23.44111l-4.081,0l0,10.08471l-7.622,0l0,-10.08471l-4.081,0zm31.851,11.87231c0,-4.1148 -2.091,-5.6663 -6.341,-5.6663c-2.664,0 -4.756,0.8432 -5.97,1.5515l0,3.3391c1.08,-0.8095 3.441,-1.6864 5.498,-1.6864c1.922,0 2.799,0.6745 2.799,2.4959l0,0.9443l-0.64,0c-6.139,0 -8.871,2.0237 -8.871,5.464c0,3.4403 2.091,5.3628 5.194,5.3628c2.361,0 3.373,-0.7758 4.149,-1.5852l0.168,0c0.034,0.4384 0.169,1.0118 0.304,1.3491l3.912,0c-0.134,-1.3829 -0.202,-2.7657 -0.202,-4.1486l0,-7.4202zm-4.014,7.5214c-0.506,0.742 -1.45,1.3491 -2.867,1.3491c-1.686,0 -2.529,-1.0118 -2.529,-2.5296c0,-1.9899 1.383,-2.6982 4.823,-2.6982l0.573,0l0,3.8787zm14.526,4.3847c1.855,0 3.171,-0.3373 4.149,-1.0456l0,-3.2716c-1.012,0.7083 -2.226,1.1467 -3.912,1.1467c-2.867,0 -4.048,-2.226 -4.048,-5.7338c0,-3.6763 1.45,-5.5651 4.081,-5.5651c1.552,0 3.07,0.5396 3.879,1.0456l0,-3.4066c-0.843,-0.4722 -2.327,-0.8095 -4.317,-0.8095c-5.127,0 -7.791,3.6764 -7.791,8.8368c0,5.6664 2.597,8.8031 7.959,8.8031zm19.126,-14.1321l0,-3.1705l-13.457,0l0,3.1705l4.722,0l0,13.7948l4.013,0l0,-13.7948l4.722,0zm6.087,-3.1705l-3.71,0l0,21.8559l4.013,0l0,-6.8806c1.012,1.5178 2.496,2.3273 4.216,2.3273c3.913,0 6.611,-3.1367 6.611,-8.8368c0,-5.6663 -2.631,-8.8031 -6.408,-8.8031c-1.889,0 -3.441,0.877 -4.52,2.5296l-0.202,-2.1923zm3.508,14.1321c-2.125,0 -3.205,-1.7201 -3.205,-5.6326c0,-3.9462 1.147,-5.6663 3.407,-5.6663c2.192,0 3.272,1.7201 3.272,5.6326c0,3.9462 -1.147,5.6663 -3.474,5.6663zm17.118,-14.4694c-4.419,0 -7.488,3.1368 -7.488,8.8368c0,5.6664 3.069,8.8031 7.488,8.8031c4.418,0 7.487,-3.1367 7.487,-8.8368c0,-5.6663 -3.069,-8.8031 -7.487,-8.8031zm0,14.4694c-2.226,0 -3.339,-1.7201 -3.339,-5.6326c0,-3.9462 1.113,-5.6663 3.339,-5.6663c2.226,0 3.339,1.7201 3.339,5.6326c0,3.9462 -1.113,5.6663 -3.339,5.6663zm23.168,1.6864l0,-3.2716c-1.248,0.8432 -3.339,1.5852 -5.296,1.5852c-2.934,0 -4.047,-1.3828 -4.216,-4.216l9.68,0l0,-2.1249c0,-5.9024 -2.597,-8.1285 -6.61,-8.1285c-4.891,0 -7.218,3.7439 -7.218,8.8705c0,5.9025 2.9,8.7694 8.027,8.7694c2.563,0 4.452,-0.6746 5.633,-1.4841zm-6.51,-12.9853c1.99,0 2.597,1.6527 2.597,3.7775l0,0.3373l-5.599,0c0.102,-2.6982 1.08,-4.1148 3.002,-4.1148zm18.744,-2.8332l0,6.7119l-5.363,0l0,-6.7119l-4.014,0l0,16.9653l4.014,0l0,-7.0829l5.363,0l0,7.0829l4.014,0l0,-16.9653l-4.014,0zm7.389,0l0,16.9653l3.474,0l6.206,-10.4895l0,10.4895l3.912,0l0,-16.9653l-3.474,0l-6.206,10.4895l0,-10.4895l-3.912,0zm29.948,15.8185l0,-3.2716c-1.248,0.8432 -3.339,1.5852 -5.295,1.5852c-2.935,0 -4.048,-1.3828 -4.216,-4.216l9.68,0l0,-2.1249c0,-5.9024 -2.597,-8.1285 -6.611,-8.1285c-4.891,0 -7.218,3.7439 -7.218,8.8705c0,5.9025 2.901,8.7694 8.027,8.7694c2.564,0 4.453,-0.6746 5.633,-1.4841zm-6.51,-12.9853c1.99,0 2.598,1.6527 2.598,3.7775l0,0.3373l-5.599,0c0.101,-2.6982 1.079,-4.1148 3.001,-4.1148z"/>
  <line stroke="#000" stroke-width="32" stroke-linecap="undefined" stroke-linejoin="undefined" id="svg_10" y2="14.15147" x2="104.27989" y1="25.07685" x1="2.70339" fill="none"/>
  <text font-style="normal" font-weight="bold" xml:space="preserve" text-anchor="start" font-family="sans-serif" font-size="30" id="svg_11" y="28.32493" x="23.07774" stroke-width="0" stroke="#000" fill="#ffffff">Лови</text>
 </g>
</svg>